<svg width="46" height="45" viewBox="0 0 46 45" fill="none" xmlns="http://www.w3.org/2000/svg">
<path d="M24.1428 27.172L29.5068 21.808L30.9208 23.222L23.1428 31L15.3648 23.222L16.7788 21.808L22.1428 27.172L22.1428 15H24.1428L24.1428 27.172Z" fill="#677189"/>
<path d="M20.8723 41.5455C24.8808 42.0126 28.9339 41.1912 32.4443 39.2004C35.9547 37.2096 38.7401 34.1527 40.3967 30.4728C42.0534 26.7929 42.4953 22.6811 41.6584 18.7332C40.8215 14.7853 38.7494 11.2064 35.7422 8.51509C32.735 5.8238 28.9489 4.15993 24.9327 3.76459C20.9165 3.36924 16.8787 4.26296 13.4045 6.31623C9.93023 8.3695 7.2 11.4757 5.60942 15.1846C4.01883 18.8936 3.65051 23.0126 4.55784 26.9449" stroke="#677189" stroke-width="2"/>
</svg>
