<svg width="76" height="11" viewBox="0 0 76 11" fill="none" xmlns="http://www.w3.org/2000/svg">
<path fill-rule="evenodd" clip-rule="evenodd" d="M20.2566 6.16895C16.9914 7.11559 13.2216 8.05769 9.5951 8.29293C6.49543 8.4937 3.50142 8.18185 1.05079 6.85501C0.705333 6.66818 0.272734 6.79662 0.0859103 7.14236C-0.101198 7.48781 0.0275266 7.92042 0.372979 8.10753C3.04632 9.55455 6.30604 9.93305 9.68709 9.71376C13.3788 9.47453 17.2167 8.52616 20.5474 7.56584C20.9338 8.34873 21.7341 9.07866 23.1438 9.6172C25.3091 10.4445 28.2655 10.4343 31.38 9.96806C35.8971 9.29225 40.7562 7.68062 43.8804 6.53547C44.0085 6.48876 44.1993 6.41444 44.4329 6.31647C44.5041 6.47367 44.5838 6.6286 44.6721 6.78068C45.4382 8.1061 46.7938 9.17777 48.175 9.56053C56.9352 11.9875 67.1593 9.07951 75.4837 6.71289C75.8597 6.60552 76.079 6.21139 75.9736 5.83347C75.8654 5.45555 75.4724 5.23597 75.0936 5.34334C67.0026 7.64389 57.0691 10.5465 48.5538 8.18811C47.5058 7.89762 46.4862 7.07401 45.9052 6.06813C45.8397 5.95592 45.7828 5.84115 45.7287 5.72467C46.8764 5.15594 48.2263 4.36308 48.9525 3.5144C49.6987 2.64436 49.8838 1.71566 49.2345 0.838498C48.6763 0.088641 47.8304 0.0248464 46.9504 0.413588C46.0021 0.829953 45.0252 1.80336 44.7091 2.26016C44.1167 3.1134 43.9288 4.03899 44.037 4.94149C43.7579 5.0594 43.5312 5.14711 43.3914 5.19837C40.3356 6.31817 35.5861 7.89878 31.1692 8.55978C28.3273 8.98526 25.6278 9.04192 23.6519 8.28722C22.8092 7.96513 22.2524 7.58921 21.9502 7.15291C22.5466 6.97463 23.1216 6.79919 23.671 6.63173C24.7574 6.30052 27.0195 5.7523 28.6357 4.77518C29.921 3.99827 30.7925 2.9414 30.7418 1.61655C30.7159 0.935896 30.322 0.481644 29.6952 0.22704C28.7585 -0.153157 27.1386 0.0308148 26.5354 0.158971C24.7059 0.546858 22.2641 2.15252 21.056 3.96181C20.5738 4.68375 20.2871 5.43902 20.2566 6.16895ZM21.7594 5.7241C22.2763 5.5686 22.7759 5.41595 23.2557 5.26957C24.2699 4.96028 26.3899 4.46901 27.899 3.55654C28.6981 3.07353 29.3506 2.49484 29.319 1.67094C29.3164 1.60686 29.2529 1.58864 29.1968 1.56244C29.1099 1.52228 29.0105 1.49465 28.9046 1.47301C28.1878 1.32662 27.2249 1.46816 26.8307 1.55189C25.2957 1.8774 23.2537 3.23444 22.2402 4.75267C22.026 5.07334 21.8554 5.4 21.7594 5.7241ZM45.4439 4.2859C46.1131 3.94159 46.8137 3.52521 47.3662 3.07211C47.6596 2.83146 47.9073 2.58399 48.064 2.3271C48.195 2.11465 48.2462 1.89705 48.0896 1.68688C48.0269 1.60172 47.933 1.60003 47.8361 1.61598C47.7336 1.63306 47.6282 1.66951 47.5229 1.7165C46.828 2.02236 46.1103 2.73691 45.8796 3.07211C45.6091 3.46085 45.4752 3.8721 45.4439 4.2859Z" fill="#121212" fill-opacity="0.7"/>
</svg>
