<svg width="52" height="50" viewBox="0 0 52 50" fill="none" xmlns="http://www.w3.org/2000/svg">
<path fill-rule="evenodd" clip-rule="evenodd" d="M30.6644 25.254C31.0635 24.7616 31.409 24.2174 31.6935 23.6167C32.6923 21.5089 31.6249 18.7314 29.7189 16.6988C27.8137 14.6668 25.1087 13.422 22.9997 14.2216C21.7937 14.6786 21.1066 15.3663 20.7829 16.1591C20.4612 16.9478 20.5002 17.8566 20.8022 18.7912C21.6453 21.3959 24.569 24.2214 26.3811 24.9367C27.2195 25.2672 28.0798 25.5405 28.9549 25.7621C26.9623 27.4256 24.0813 28.1735 20.9078 28.3661C14.0108 28.7849 5.71306 26.5495 1.60156 24.8435C1.38067 24.7518 1.12798 24.857 1.03631 25.0779C0.944645 25.2987 1.0491 25.5523 1.27 25.6439C5.46291 27.3837 13.9263 29.6576 20.9599 29.2303C24.5932 29.0099 27.8423 28.061 29.981 25.9987C36.6314 27.3758 44.1279 26.0655 50.4872 25.005C50.7227 24.9666 50.8824 24.7426 50.8431 24.5065C50.8031 24.2711 50.5807 24.1113 50.3445 24.1506C44.245 25.1673 37.079 26.4515 30.6644 25.254ZM29.6982 25.0531C30.1795 24.5269 30.5889 23.9264 30.9111 23.2447C31.7758 21.4207 30.7376 19.0501 29.0875 17.2906C28.0758 16.2125 26.8215 15.3604 25.5739 15.009C24.7897 14.7877 24.0102 14.7653 23.3068 15.0324C22.3835 15.3823 21.8321 15.88 21.5853 16.4866C21.3358 17.0965 21.392 17.8005 21.6267 18.524C22.3946 20.8981 25.0494 23.4796 26.6989 24.1305C27.6717 24.5147 28.6737 24.8179 29.6982 25.0531Z" fill="#121212" fill-opacity="0.7"/>
</svg>
