<svg width="52" height="52" viewBox="0 0 52 52" fill="none" xmlns="http://www.w3.org/2000/svg">
<path fill-rule="evenodd" clip-rule="evenodd" d="M49.2328 16.3637C39.4731 34.5117 19.9771 41.8898 1.86954 31.6729C1.26674 31.3327 0.502314 31.5454 0.162106 32.1408C-0.178102 32.7468 0.0345511 33.5122 0.637357 33.8524C20.0462 44.8135 40.9785 36.9994 51.4399 17.5544C51.7674 16.9484 51.5388 16.1828 50.9296 15.8533C50.3204 15.5343 49.5603 15.7577 49.2328 16.3637Z" fill="#121212" fill-opacity="0.7"/>
<path d="M17.1074 23.89C19.1234 23.89 20.7577 22.2557 20.7577 20.2396C20.7577 18.2236 19.1234 16.5893 17.1074 16.5893C15.0913 16.5893 13.457 18.2236 13.457 20.2396C13.457 22.2557 15.0913 23.89 17.1074 23.89Z" fill="#121212" fill-opacity="0.7"/>
<path d="M32.2196 20.0067C34.1962 20.0067 35.7987 18.4044 35.7987 16.4277C35.7987 14.4511 34.1962 12.8487 32.2196 12.8487C30.243 12.8487 28.6406 14.4511 28.6406 16.4277C28.6406 18.4044 30.243 20.0067 32.2196 20.0067Z" fill="#121212" fill-opacity="0.7"/>
</svg>
